<?xml version="1.0" encoding="UTF-8"?>
<svg id="Layer_1" xmlns="http://www.w3.org/2000/svg" version="1.1" viewBox="0 0 800 800">
  <!-- Generator: Adobe Illustrator 29.3.1, SVG Export Plug-In . SVG Version: 2.1.0 Build 151)  -->
  <defs>
    <style>
      .st0 {
        fill: #4e47dc;
      }
    </style>
  </defs>
  <path class="st0" d="M450.6,345.1h-40.3c-2.3,0-4.3,1.9-4.3,4.3v40.3c0,2.3,1.9,4.3,4.3,4.3h40.3c2.3,0,4.3-1.9,4.3-4.3v-40.3c0-2.3-1.9-4.3-4.3-4.3ZM442.7,379.2c0,1.4-1.1,2.5-2.5,2.5h-19.4c-1.4,0-2.5-1.1-2.5-2.5v-19.4c0-1.4,1.1-2.5,2.5-2.5h19.4c1.4,0,2.5,1.1,2.5,2.5v19.4Z"/>
  <path class="st0" d="M410.4,406.1h40.3c2.3,0,4.3,1.9,4.3,4.3v40.3c0,2.3-1.9,4.3-4.3,4.3h-40.3c-2.3,0-4.3-1.9-4.3-4.3v-40.3c0-2.3,1.9-4.3,4.3-4.3Z"/>
  <path class="st0" d="M389.6,406.1h-40.3c-2.3,0-4.3,1.9-4.3,4.3v40.3c0,2.3,1.9,4.3,4.3,4.3h40.3c2.3,0,4.3-1.9,4.3-4.3v-40.3c0-2.3-1.9-4.3-4.3-4.3ZM381.7,440.2c0,1.4-1.1,2.5-2.5,2.5h-19.4c-1.4,0-2.5-1.1-2.5-2.5v-19.4c0-1.4,1.1-2.5,2.5-2.5h19.4c1.4,0,2.5,1.1,2.5,2.5v19.4Z"/>
  <path class="st0" d="M349.4,345.1h40.3c2.3,0,4.3,1.9,4.3,4.3v40.3c0,2.3-1.9,4.3-4.3,4.3h-40.3c-2.3,0-4.3-1.9-4.3-4.3v-40.3c0-2.3,1.9-4.3,4.3-4.3Z"/>
</svg>