<svg  viewBox="0 0 147 32" fill="none" xmlns="http://www.w3.org/2000/svg">
<g clip-path="url(#clip0_10_35)">
<path d="M54.4957 4.11951H45.2173C44.66 4.11951 44.2006 4.57138 44.2006 5.13622V26.8863C44.2006 27.4436 44.6524 27.903 45.2173 27.903H50.8807C51.438 27.903 51.8974 27.4511 51.8974 26.8863V21.9308H54.6463C60.9499 21.9308 64.6477 18.0823 64.6477 12.8783C64.6477 7.34285 60.8369 4.11951 54.4957 4.11951ZM54.089 15.9962H51.8899V10.0616H54.089C56.1375 10.0616 57.3124 11.0482 57.3124 13.0289C57.3124 15.0096 56.1375 15.9962 54.089 15.9962Z" fill="#070754"/>
<path d="M81.2539 4.963C81.0731 4.45841 80.5911 4.11951 80.0564 4.11951H73.0148C72.48 4.11951 71.9981 4.45841 71.8173 4.95547L63.7966 27.0143C63.6384 27.4436 63.9548 27.8955 64.4142 27.8955H70.4918C70.8985 27.8955 71.26 27.6319 71.373 27.2402L72.3821 23.9341H80.6288L81.6681 27.2478C81.7886 27.6319 82.1426 27.8955 82.5492 27.8955H88.6269C89.0788 27.8955 89.3951 27.4436 89.2445 27.0143L81.2539 4.95547V4.963ZM74.2047 17.9317L76.5168 10.3855L78.7912 17.9317H74.2122H74.2047Z" fill="#070754"/>
<path d="M98.2895 4.11951H92.6261C92.0646 4.11951 91.6094 4.5747 91.6094 5.13622V26.8863C91.6094 27.4478 92.0646 27.903 92.6261 27.903H98.2895C98.851 27.903 99.3062 27.4478 99.3062 26.8863V5.13622C99.3062 4.5747 98.851 4.11951 98.2895 4.11951Z" fill="#070754"/>
<path d="M120.077 19.1066C122.901 17.4196 123.745 14.633 123.745 12.4716C123.745 7.19223 119.859 4.11951 113.412 4.11951H104.427C103.87 4.11951 103.411 4.57138 103.411 5.13622V26.8863C103.411 27.4436 103.863 27.903 104.427 27.903H110.128C110.686 27.903 111.145 27.4511 111.145 26.8863V20.5751H113.051L115.784 27.3231C115.927 27.6695 116.266 27.903 116.643 27.903H123.195C123.677 27.903 123.993 27.4059 123.79 26.9691L120.092 19.1141L120.077 19.1066ZM113.148 15.2205H111.13V9.87333H113.148C115.092 9.87333 116.409 10.6039 116.409 12.5469C116.409 14.4899 115.092 15.2205 113.148 15.2205Z" fill="#070754"/>
<path d="M139.711 13.3528L136.156 12.4039C134.876 12.0725 134.07 11.7411 134.07 10.9051C134.07 10.137 134.801 9.62485 136.232 9.62485C137.994 9.62485 139.613 10.3252 141.082 11.5604C141.39 11.824 141.857 11.8014 142.144 11.5076L145.487 8.13367C145.819 7.79477 145.796 7.24499 145.435 6.94375C142.949 4.83502 140.095 3.75806 136.156 3.75806C129.89 3.75806 126.742 6.94375 126.742 11.0482C126.742 15.6649 130.553 17.2765 133.927 18.2706L136.97 19.1518C138.363 19.5509 138.988 19.9576 138.988 20.8011C138.988 21.7877 138.22 22.232 136.57 22.232C134.371 22.232 132.202 21.2907 130.643 19.6489C130.342 19.3325 129.838 19.3175 129.529 19.6263L125.876 23.1659C125.545 23.4898 125.552 24.0245 125.891 24.3408C128.859 27.18 132.24 28.2419 136.36 28.2419C142.769 28.2419 146.323 25.1993 146.323 20.5074C146.323 16.4029 143.205 14.3168 139.726 13.3603L139.711 13.3528Z" fill="#070754"/>
<path d="M30.7649 0H19.0238C18.3384 0 17.7811 0.557308 17.7811 1.24265V12.9838C17.7811 13.6691 18.3384 14.2264 19.0238 14.2264H30.7649C31.4502 14.2264 32.0075 13.6691 32.0075 12.9838V1.24265C32.0075 0.557308 31.4502 0 30.7649 0ZM28.4453 9.93363C28.4453 10.3403 28.1214 10.6642 27.7148 10.6642H22.0664C21.6597 10.6642 21.3358 10.3403 21.3358 9.93363V4.28524C21.3358 3.87856 21.6597 3.55472 22.0664 3.55472H27.7148C28.1214 3.55472 28.4453 3.87856 28.4453 4.28524V9.93363Z" fill="#4E47DC"/>
<path d="M30.7649 17.7811H19.0238C18.3375 17.7811 17.7811 18.3375 17.7811 19.0238V30.7649C17.7811 31.4512 18.3375 32.0075 19.0238 32.0075H30.7649C31.4512 32.0075 32.0075 31.4512 32.0075 30.7649V19.0238C32.0075 18.3375 31.4512 17.7811 30.7649 17.7811Z" fill="#4E47DC"/>
<path d="M12.9838 17.7811H1.24265C0.557308 17.7811 0 18.3384 0 19.0238V30.7649C0 31.4502 0.557308 32.0075 1.24265 32.0075H12.9838C13.6691 32.0075 14.2264 31.4502 14.2264 30.7649V19.0238C14.2264 18.3384 13.6691 17.7811 12.9838 17.7811ZM10.6642 27.7148C10.6642 28.1214 10.3403 28.4453 9.93363 28.4453H4.28524C3.87856 28.4453 3.55472 28.1214 3.55472 27.7148V22.0664C3.55472 21.6597 3.87856 21.3358 4.28524 21.3358H9.93363C10.3403 21.3358 10.6642 21.6597 10.6642 22.0664V27.7148Z" fill="#4E47DC"/>
<path d="M12.9838 0H1.24265C0.556351 0 0 0.556351 0 1.24265V12.9838C0 13.6701 0.556351 14.2264 1.24265 14.2264H12.9838C13.6701 14.2264 14.2264 13.6701 14.2264 12.9838V1.24265C14.2264 0.556351 13.6701 0 12.9838 0Z" fill="#4E47DC"/>
</g>
<defs>
<clipPath id="clip0_10_35">
<rect width="146.308" height="32" fill="white"/>
</clipPath>
</defs>
</svg>
